<svg width="16" height="16" viewBox="0 0 16 16" fill="none" xmlns="http://www.w3.org/2000/svg">
<path d="M7.72198 0.157227C3.30371 0.157227 -0.278015 3.7396 -0.278015 8.15723C-0.278015 12.5755 3.30339 16.1566 7.72198 16.1566C12.1403 16.1566 15.722 12.5755 15.722 8.15723C15.722 3.7396 12.1399 0.157227 7.72198 0.157227ZM13.0713 10.4174C12.9261 10.7621 12.7458 11.0938 12.536 11.4034C12.3284 11.711 12.0899 11.9998 11.8271 12.2626C11.5643 12.5248 11.2758 12.7633 10.9684 12.9715C10.6582 13.1811 10.3255 13.361 9.9818 13.5069C9.63094 13.6547 9.26416 13.7684 8.8912 13.8451C8.5085 13.9237 8.11508 13.9637 7.72166 13.9637C7.32824 13.9637 6.93482 13.9237 6.55212 13.8451C6.17916 13.7684 5.81173 13.6547 5.46152 13.5069C5.11715 13.361 4.78481 13.1807 4.47455 12.9715C4.16755 12.7633 3.87841 12.5248 3.61591 12.2626C3.35309 11.9998 3.11463 11.7113 2.90704 11.4034C2.6975 11.0938 2.51752 10.7617 2.37165 10.4174C2.22351 10.0665 2.10948 9.69972 2.03281 9.32612C1.95516 8.94342 1.91553 8.55065 1.91553 8.15723C1.91553 7.7638 1.95516 7.37038 2.03281 6.98833C2.10948 6.61473 2.22351 6.2473 2.37165 5.89708C2.51752 5.55239 2.69782 5.22005 2.90704 4.91012C3.11463 4.60247 3.35309 4.3143 3.61591 4.05083C3.87841 3.78866 4.16722 3.55085 4.47455 3.34261C4.78481 3.13274 5.11715 2.95243 5.46152 2.80657C5.81173 2.6581 6.17916 2.54439 6.55212 2.46837C6.93482 2.3904 7.32824 2.35044 7.72166 2.35044C8.11508 2.35044 8.5085 2.3904 8.8912 2.46837C9.26416 2.54439 9.63094 2.6581 9.9818 2.80657C10.3258 2.95243 10.6582 3.13274 10.9684 3.34261C11.2754 3.55085 11.5643 3.78866 11.8271 4.05083C12.0899 4.3143 12.3284 4.60214 12.536 4.91012C12.7458 5.21972 12.9261 5.55239 13.0713 5.89708C13.2198 6.2473 13.3335 6.61473 13.4095 6.98833C13.4882 7.37038 13.5281 7.7638 13.5281 8.15723C13.5281 8.55065 13.4882 8.94342 13.4095 9.32612C13.3335 9.69972 13.2201 10.0665 13.0713 10.4174Z" fill="#1E266D"/>
</svg>
