<svg width="208" height="450" viewBox="0 0 208 450" fill="none" xmlns="http://www.w3.org/2000/svg">
<path d="M4.95187 169.672C4.06353 172.781 -10.1498 247.845 14.2794 317.579C18.2769 318.467 17.8327 307.363 17.8327 307.363L13.391 211.867L15.6119 175.89L4.95187 169.672Z" fill="#DE8E68"/>
<path d="M71.5769 449.053H28.4927C28.4927 449.053 13.8352 297.592 13.8352 294.483C16.5002 297.148 16.056 298.036 27.1602 301.145C33.8227 308.252 80.9044 426.4 80.9044 426.4L71.5769 449.053Z" fill="#56CAD8"/>
<path d="M50.1725 113.262C70.9284 119.201 54.5386 182.601 46.8546 187.914C39.1705 193.226 3.14854 178.275 0.243685 171.55C-2.66117 164.826 20.7864 104.854 50.1725 113.262Z" fill="#FCC486"/>
<path d="M68.9119 96.3842C135.093 96.3842 136.425 286.487 127.098 294.482C117.77 302.477 22.2744 310.028 13.8352 294.482C5.39603 278.937 -3.04314 96.3842 68.9119 96.3842Z" fill="#FED385"/>
<path d="M92.8969 109.265C110.219 96.3842 150.639 147.908 150.194 157.235C149.75 166.563 115.994 186.106 108.887 184.329C101.78 182.553 68.37 127.503 92.8969 109.265Z" fill="#FED892"/>
<path d="M143.976 159.012C160.41 186.106 164.852 222.083 164.852 228.302C164.852 245.18 156.413 253.619 151.083 253.619C129.763 253.619 59.5844 199.431 54.6985 194.989C49.8127 190.548 64.026 177.223 66.2469 179.443C68.4677 181.664 93.7852 197.654 130.651 213.644C125.321 206.982 109.775 186.994 109.331 180.776C108.887 174.558 143.976 159.012 143.976 159.012Z" fill="#DE8E68"/>
<path d="M45.1371 146.04L17.3887 150.227L24.5653 197.792L52.3137 193.605L45.1371 146.04Z" fill="#333333"/>
<path d="M65.3487 189.549C68.6604 183.813 64.8868 175.434 56.9202 170.835C48.9537 166.235 39.8109 167.156 36.4993 172.892C33.1876 178.628 36.9612 187.007 44.9278 191.606C52.8943 196.206 62.0371 195.284 65.3487 189.549Z" fill="#DE8E68"/>
<path d="M80.4602 104.823C80.4602 110.597 57.3635 111.042 57.3635 104.823V69.7341H80.4602V104.823Z" fill="#D37C59"/>
<path d="M62.9156 90.6099C75.5489 90.6099 85.7903 72.4142 85.7903 49.9686C85.7903 27.5231 75.5489 9.32739 62.9156 9.32739C50.2823 9.32739 40.041 27.5231 40.041 49.9686C40.041 72.4142 50.2823 90.6099 62.9156 90.6099Z" fill="#DE8E68"/>
<path d="M84.2356 61.7392C87.5473 61.7392 90.2319 59.0546 90.2319 55.743C90.2319 52.4313 87.5473 49.7467 84.2356 49.7467C80.924 49.7467 78.2393 52.4313 78.2393 55.743C78.2393 59.0546 80.924 61.7392 84.2356 61.7392Z" fill="#DE8E68"/>
<path d="M162.187 3.55333C144.864 3.55333 130.651 15.99 111.996 15.99C98.671 15.99 85.7902 0 67.1352 0C43.1502 0 35.5994 12.8808 35.5994 21.7642C35.5994 28.8708 40.041 36.8658 41.3735 36.8658C41.3735 34.645 44.0385 26.65 44.9269 25.7617C45.8152 28.8708 64.4702 50.635 80.9044 50.635V50.7594C81.8071 50.1553 82.8569 49.8078 83.9418 49.754C85.0266 49.7002 86.1057 49.9421 87.0638 50.4538C88.0219 50.9655 88.823 51.7278 89.3816 52.6594C89.9401 53.591 90.2352 54.6567 90.2352 55.7429C90.2352 56.8291 89.9401 57.8949 89.3816 58.8264C88.823 59.758 88.0219 60.5203 87.0638 61.032C86.1057 61.5438 85.0266 61.7856 83.9418 61.7318C82.8569 61.678 81.8071 61.3305 80.9044 60.7265V73.7317H85.346C91.1202 73.7317 93.7852 71.5108 102.669 71.5108C118.214 71.5108 139.979 90.61 166.629 90.61C195.499 90.61 207.492 68.8458 207.492 44.4167C207.492 11.9925 176.844 3.55333 162.187 3.55333Z" fill="black"/>
<path d="M127.098 294.483V449.053H71.5769L27.1069 301.043C42.706 303.81 101.78 306.031 127.098 294.483Z" fill="#74D5DE"/>
</svg>
